<svg width="254" height="180" viewBox="0 0 254 180" fill="none" xmlns="http://www.w3.org/2000/svg"><mask id="prefix__a" maskUnits="userSpaceOnUse" x="0" y="0" width="254" height="180"><path fill="#fff" d="M0 0h253.5v180H0z"></path></mask><g mask="url(#prefix__a)"><path fill-rule="evenodd" clip-rule="evenodd" d="M200.854 131.558c-5.368 9.086-11.416 15.523-18.891 20.758a75.64 75.64 0 01-17.56 9.135c-6.374 2.323-12.99 3.942-19.734 4.966-9.794 1.487-19.63 2.042-29.55 1.603-11.032-.486-21.721-2.588-31.893-6.887-3.734-1.579-7.469-3.356-10.698-5.968-2.442-1.975-5.222-3.591-7.426-5.79-3.207-3.199-6.261-6.611-8.969-10.236-5.448-7.288-8.563-15.592-9.68-24.568-.611-4.911-1.244-9.866-1.212-14.793.034-5.11.802-10.217 1.355-15.314a307.235 307.235 0 011.656-12.918c.95-6.275 1.646-12.624 3.138-18.772 1.899-7.83 3.855-15.724 8.044-22.762 4.06-6.824 9.29-12.643 16.244-16.563 6.088-3.432 12.788-4.897 19.895-4.797 7.852.11 14.971 2.63 21.606 6.432 4.848 2.776 9.293 6.251 13.417 10.086 3.399 3.159 6.755 6.397 10.423 9.22 3.862 2.97 7.72 6.01 12.145 8.185 6.276 3.087 12.563 6.154 18.786 9.345 5.466 2.806 10.467 6.326 15.242 10.195a50.145 50.145 0 0110.052 10.994c5.234 7.767 9.104 16.068 9.862 25.593.452 5.664.717 11.282-.543 16.843-.614 2.709-1.352 5.411-2.313 8.012-1.169 3.167-2.631 6.224-3.396 8.001z" fill="#E6A386" opacity="0.212"></path></g><path clip-rule="evenodd" d="M203.655 117.296H64.548L43.785 142.31h142.098l17.772-25.014z" stroke="#FA6666" stroke-width="2.649" stroke-linecap="round" stroke-linejoin="round"></path><path d="M70.093 117.296l7.42 24.338M105.169 117.296l8.095 26.366M140.246 117.296l9.444 26.366M176.672 117.296l7.421 25.014" stroke="#FA6666" stroke-width="2.649" stroke-linecap="round" stroke-linejoin="round"></path><path d="M194.21 102.423l29.681 41.239" stroke="#FA6666" stroke-width="5.297" stroke-linecap="round" stroke-linejoin="round"></path><path d="M196.896 113.24h4.216c3.64 0 6.59-1.723 6.59-5.246 0-3.522-2.95-6.247-6.59-6.247h-10.274" stroke="#00455D" stroke-width="1.258" stroke-linecap="round" stroke-linejoin="round"></path><path d="M196.78 101.07h-5.942l30.098 41.153s1.421 3.032 2.971 1.835c1.55-1.196.129-2.991-1.808-5.299-1.938-2.308-26.633-37.421-26.633-37.421" stroke="#00455D" stroke-width="1.258" stroke-linecap="round" stroke-linejoin="round"></path><path d="M205.003 120.47l-18.414 25.049s-139.468.385-142.27 0c-2.802-.386-1.649-2.134-1.649-2.134l21.923-27.441H201.78" stroke="#00455D" stroke-width="1.258" stroke-linecap="round" stroke-linejoin="round"></path><path clip-rule="evenodd" d="M200.282 119.324h-20.237l5.89 20.958 14.347-20.958zM144.293 119.324l6.513 21.634h31.262l-6.187-21.634h-31.588zM107.868 119.324l6.976 21.462 31.473.172-6.976-21.634h-31.473z" stroke="#00455D" stroke-width="1.258" stroke-linecap="round" stroke-linejoin="round"></path><path clip-rule="evenodd" d="M72.116 119.324l6.766 21.634h31.684l-6.766-21.634H72.116z" stroke="#353E48" stroke-width="1.258" stroke-linecap="round" stroke-linejoin="round"></path><path clip-rule="evenodd" d="M47.157 142.31l17.782-22.986h3.518l6.357 22.986H47.157z" stroke="#00455D" stroke-width="1.148" stroke-linecap="round" stroke-linejoin="round"></path><path fill-rule="evenodd" clip-rule="evenodd" d="M66.72 144c0 13.255-10.571 24-23.61 24-13.04 0-23.61-10.745-23.61-24s10.57-24 23.61-24c13.039 0 23.61 10.745 23.61 24zM247.5 144c0 13.255-10.57 24-23.609 24-13.039 0-23.61-10.745-23.61-24s10.571-24 23.61-24 23.609 10.745 23.609 24z" fill="#FA6666" stroke="#00455D" stroke-width="1.258" stroke-linecap="round" stroke-linejoin="round"></path><path clip-rule="evenodd" d="M52.554 143.662c0 4.854-3.926 8.789-8.77 8.789-4.842 0-8.768-3.935-8.768-8.789 0-4.854 3.926-8.789 8.769-8.789s8.77 3.935 8.77 8.789z" stroke="#00455D" stroke-width="1.258" stroke-linecap="round" stroke-linejoin="round"></path><path fill-rule="evenodd" clip-rule="evenodd" d="M83.584 143.324c0 3.547-2.87 6.423-6.409 6.423-3.539 0-6.408-2.876-6.408-6.423s2.87-6.423 6.408-6.423c3.54 0 6.409 2.876 6.409 6.423z" fill="#97CAD1"></path><path clip-rule="evenodd" d="M83.584 143.324c0 3.547-2.87 6.423-6.409 6.423-3.539 0-6.408-2.876-6.408-6.423s2.87-6.423 6.408-6.423c3.54 0 6.409 2.876 6.409 6.423z" stroke="#00455D" stroke-width="1.258" stroke-linecap="round" stroke-linejoin="round"></path><path fill-rule="evenodd" clip-rule="evenodd" d="M120.009 143.324c0 3.547-2.87 6.423-6.408 6.423-3.54 0-6.409-2.876-6.409-6.423s2.869-6.423 6.409-6.423c3.538 0 6.408 2.876 6.408 6.423z" fill="#97CAD1"></path><path clip-rule="evenodd" d="M120.009 143.324c0 3.547-2.87 6.423-6.408 6.423-3.54 0-6.409-2.876-6.409-6.423s2.869-6.423 6.409-6.423c3.538 0 6.408 2.876 6.408 6.423z" stroke="#00455D" stroke-width="1.258" stroke-linecap="round" stroke-linejoin="round"></path><path fill-rule="evenodd" clip-rule="evenodd" d="M156.435 143.324c0 3.547-2.869 6.423-6.408 6.423s-6.408-2.876-6.408-6.423 2.869-6.423 6.408-6.423 6.408 2.876 6.408 6.423z" fill="#97CAD1"></path><path clip-rule="evenodd" d="M156.435 143.324c0 3.547-2.869 6.423-6.408 6.423s-6.408-2.876-6.408-6.423 2.869-6.423 6.408-6.423 6.408 2.876 6.408 6.423z" stroke="#00455D" stroke-width="1.258" stroke-linecap="round" stroke-linejoin="round"></path><path fill-rule="evenodd" clip-rule="evenodd" d="M192.187 143.324c0 3.547-2.869 6.423-6.408 6.423-3.54 0-6.409-2.876-6.409-6.423s2.869-6.423 6.409-6.423c3.539 0 6.408 2.876 6.408 6.423z" fill="#97CAD1"></path><path clip-rule="evenodd" d="M192.187 143.324c0 3.547-2.869 6.423-6.408 6.423-3.54 0-6.409-2.876-6.409-6.423s2.869-6.423 6.409-6.423c3.539 0 6.408 2.876 6.408 6.423z" stroke="#00455D" stroke-width="1.258" stroke-linecap="round" stroke-linejoin="round"></path><path clip-rule="evenodd" d="M229.962 143.324c0 3.547-2.869 6.423-6.408 6.423s-6.408-2.876-6.408-6.423 2.869-6.423 6.408-6.423 6.408 2.876 6.408 6.423z" stroke="#353E48" stroke-width="1.258" stroke-linecap="round" stroke-linejoin="round"></path><path fill-rule="evenodd" clip-rule="evenodd" d="M57.975 66.592L51.88 98.757s2.709 2.341 3.87 1.425c1.16-.917 4.547-4.886 8.32-4.785l1.354.102s-.591-4.071 1.252-6.717c1.844-2.647 10.165-21.173-8.701-22.19z" fill="#0098AB"></path><path fill-rule="evenodd" clip-rule="evenodd" d="M68.74 113.334c8.822 5.381 8.12 3.593 9.222 6.048 1.103 2.455 10.426 14.815 10.426 14.815l5.313-4.803s-13.232-21.063-28.47-32.768c0 0-3.81-1.1-5.213 1-1.403 2.102-3.91 4.203-6.115 3.702 0 0 .3 4.903 14.837 12.006z" fill="#F6F7F8"></path><path fill-rule="evenodd" clip-rule="evenodd" d="M84.258 99.042s5.496-2.258 9.094-2.053c3.597.205 6.395-.514 6.395-.514s2.599-13.658-.499-16.225l6.595-3.8s-.699-13.555-10.792-17.971c0 0-5.097 1.643-8.595 24.235-1.799 12.22-2.198 16.328-2.198 16.328zM84.932 100.167s.102 3.194 1.837 4.739c1.735 1.545 18.051 9.993 18.051 9.993s10.118 10.715 12.262 14.115c2.143 3.4 5.001 7.211 5.001 7.211l6.021-5.287s-8.879-21.808-27.965-33.244c0 0-6.736-.103-9.9.721-3.163.825-5.307 1.752-5.307 1.752z" fill="#EFDECC"></path><path fill-rule="evenodd" clip-rule="evenodd" d="M123.248 98.15s-1.215 4.648 0 6.866c1.215 2.219 18.987 15.66 18.987 15.66l4.757-8.091-11.14-13.702s-2.503-1.597-3.755-.733c-1.251.863-4.858.32-5.62-.256-.763-.577-3.229.256-3.229.256z" fill="#0098AB"></path><path fill-rule="evenodd" clip-rule="evenodd" d="M135.005 65.24s6.212 3.859 6.389 13.894c.178 10.035 1.079 11.836 1.079 11.836l1.82 2.48-2.899 2.923-3.427-1.672-1.03 5.017s-1.674-2.28-4.12-2.17c-2.447.112-3.991 1.176-6.824 0-2.832-1.175-4.635-.613-4.635-.613l13.647-31.695z" fill="#F6F7F8"></path><path fill-rule="evenodd" clip-rule="evenodd" d="M150.493 57.127l-2.355 2.021s.928 1.95.072 3.177c-.759 1.088-1.499 2.725-2.927 2.915-1.427.19-2.498 1.345-2.926 2.933-.428 1.589.856 3.827.856 3.827l9.85-13.285-2.57-1.588z" fill="#fff"></path><path fill-rule="evenodd" clip-rule="evenodd" d="M147.615 55.787s-1.413 5.604-14.208 2.914c-1.962-.67-7.457 1.276-8.712 2.024-1.256.748-5.809.89-6.594-2.024-.785-2.914 2.683-3.588 3.421-3.588.739 0 3.094-1.795 1.445-3.74-.941-.899 2.905-1.946 6.594-1.198 3.689.748 9.184-1.109 12.874-.255 3.689.853 5.573 4.295 5.18 5.867z" fill="#EFDECC"></path><path fill-rule="evenodd" clip-rule="evenodd" d="M153.705 26.028l-15.483 9 18.213 5.873-2.73-14.873z" fill="#FA6666"></path><path fill-rule="evenodd" clip-rule="evenodd" d="M163.116 69.776s-4.617 9.69-5.165 15.046c-.547 5.357-2.191 18.277-2.191 18.277l15.572-2.521s-1.096-3.545 0-6.302c1.095-2.757 3.521-11.58 3.521-11.58l-2.582-1.418 3.052-8.745s-6.182-4.726-12.207-2.757z" fill="#fff"></path><path fill-rule="evenodd" clip-rule="evenodd" d="M159.134 104.877s10.18 9.155 14.009 11.067l7.576-8.153-9.113-6.721-12.472 3.807z" fill="#EFDECC"></path><path fill-rule="evenodd" clip-rule="evenodd" d="M95.073 45.634s-.613-6.176 4.653-7.811c5.266-1.635 9.491 3.906 9.491 3.906l-14.144 3.905zM198.933 141.639l2.968 5.403s4.317-3.447 4.407-4.751c.09-1.304 1.439-1.863 1.799-1.863.36 0 5.666-6.334 5.666-6.334s-1.799-2.329-3.868-1.863c-2.068.465-5.396 2.328-5.396 2.328s-1.079 4.69-3.418 5.046l-2.158 2.034z" fill="#0098AB"></path><path d="M152.388 105.127l12.817 10.141" stroke="#00455D" stroke-width="1.258" stroke-linecap="round" stroke-linejoin="round"></path><path d="M137.751 60.507s-2.062 4.834-4.009 4.954c-1.604 3.38-13.059 32.908-13.059 32.908s2.635-1.42 4.353-.586c1.719.835 3.208 1.76 5.499.94 2.29-.82 5.039-.449 6.185.32l2.176-3.884" stroke="#00455D" stroke-width="1.148" stroke-linecap="round" stroke-linejoin="round"></path><path d="M133.5 75.013s2.33 12.547 2.943 14.601c.614 2.054 2.33 5.109 5.641 6.783 3.311 1.675 5.886 5.01 5.886 6.907 0 1.896 3.924 2.499 3.924 2.499s3.434-2.074-1.471-7.38c-4.905-5.305-8.461-8.015-8.461-8.015s2.575-20.106-3.066-22.464" stroke="#00455D" stroke-width="1.258" stroke-linecap="round" stroke-linejoin="round"></path><path d="M142.966 73.352l18.865-24.051s.122-1.82-2.434-1.442l-2.069-2.225s-3.767 3.364-3.465 4.166c.3.802 1.883 1.51.422 3.167-1.46 1.657-5.842 5.678-5.842 5.678s1.095 4.613-1.339 5.205c-2.434.591-6.329 2.7-5.355 5.482" stroke="#00455D" stroke-width="1.258" stroke-linecap="round" stroke-linejoin="round"></path><path d="M148.341 55.099s0-6.807-8.095-7.437M144.968 52.395s-.478-3.237-7.873-2.629c-7.395.609-8.946.385-11.69-.076M142.269 52.772s-3.967-1.017-6.184-.066c-1.4.832-5.95.088-8.517-.727-2.567-.816-6.885.545-6.885.545M145.642 54.423s-2.582 2.509-15.732.613c-6.336 0-9.227 2.09-9.227 2.09M146.317 57.127s-4.796 2.076-10.996 1.083c-6.199-.994-9.241.269-9.241.269" stroke="#00455D" stroke-width="1.148" stroke-linecap="round" stroke-linejoin="round"></path><path fill-rule="evenodd" clip-rule="evenodd" d="M163.028 130.817s4.674 7.003 6.232 6.826c1.557-.177 4.067-4.078 6.058-3.9 1.99.177 3.202.46 3.375.983.173.524-8.308 12.491-9.001 12.314-.692-.177-3.462-5.053-3.462-5.053l-7.096-3.058 1.557-3.59" fill="#0098AB"></path><path d="M163.028 130.817s4.674 7.003 6.232 6.826c1.557-.177 4.067-4.078 6.058-3.9 1.99.177 3.202.46 3.375.983.173.524-8.308 12.491-9.001 12.314-.692-.177-3.462-5.053-3.462-5.053l-7.096-3.058 1.557-3.59" stroke="#00455D" stroke-width="1.258" stroke-linecap="round" stroke-linejoin="round"></path><path fill-rule="evenodd" clip-rule="evenodd" d="M149.015 100.732a2.364 2.364 0 01-2.361 2.367 2.364 2.364 0 01-2.361-2.367 2.363 2.363 0 012.361-2.366 2.363 2.363 0 012.361 2.366z" fill="#fff"></path><path clip-rule="evenodd" d="M149.015 100.732a2.364 2.364 0 01-2.361 2.367 2.364 2.364 0 01-2.361-2.367 2.363 2.363 0 012.361-2.366 2.363 2.363 0 012.361 2.366z" stroke="#00455D" stroke-width="1.258" stroke-linecap="round" stroke-linejoin="bevel"></path><path d="M159.808 58.479L154.722 24s-16.5 10.352-16.5 11.757c0 1.406 20.125 8.434 20.125 8.434M141.596 97.014l4.047-4.056" stroke="#00455D" stroke-width="1.258" stroke-linecap="round" stroke-linejoin="round"></path><path d="M97.449 55.099s-6.02 5.733-8.061 14.944c-2.042 9.212-5.805 27.966-5.805 27.966s3.977 1.376 9.46-1.273c3.009-1.271 9.243-.741 9.243-.741s-.645-7.629.86-10.277" stroke="#00455D" stroke-width="1.148" stroke-linecap="round" stroke-linejoin="round"></path><path d="M97.29 80.113l10.543-4.666s1.262-13.893-11.433-19.672M93.701 69.972l4.722 9.465M107.784 77.409s5.312 14.14 7.677 17.035c2.366 2.894 3.189 7.546 1.955 9.096-1.235 1.551-2.366 3.057-4.114 1.787-1.748-1.27-.72-1.719-1.543-2.424-.822-.706 1.852-4.387 1.852-4.387s-10.387-7.485-13.164-18.493" stroke="#00455D" stroke-width="1.148" stroke-linecap="round" stroke-linejoin="round"></path><path fill-rule="evenodd" clip-rule="evenodd" d="M113.264 100.732a2.364 2.364 0 01-2.361 2.367 2.364 2.364 0 01-2.361-2.367 2.363 2.363 0 012.361-2.366 2.363 2.363 0 012.361 2.366z" fill="#fff"></path><path clip-rule="evenodd" d="M113.264 100.732a2.364 2.364 0 01-2.361 2.367 2.364 2.364 0 01-2.361-2.367 2.363 2.363 0 012.361-2.366 2.363 2.363 0 012.361 2.366z" stroke="#00455D" stroke-width="1.148" stroke-linecap="round" stroke-linejoin="bevel"></path><path d="M104.406 62.535s-2.203-6.758 1.932-7.6c4.136-.842 6.829.856 6.925-6.597M86.281 48.338s9.874-1.508 17.005-3.726c7.131-2.217 7.954-2.674 7.954-2.674s-1.617-5.76-8.625-5.029c-7.008.732-6.387 8.503-6.387 8.503" stroke="#00455D" stroke-width="1.148" stroke-linecap="round" stroke-linejoin="bevel"></path><path d="M95.163 46.986s-.861 3.923 2.2 4.614c0 0-1.6 2.597 1.735 2.078M103.146 46.31s-3.036 2.526 0 4.732" stroke="#00455D" stroke-width="1.148" stroke-linecap="round" stroke-linejoin="round"></path><path d="M106.519 45.501s-.094 2.39 2.152 2.143c2.246-.247 2.246-2.143 2.246-2.143s1.496 1.566 2.9.66c1.403-.907.655-2.308 0-2.555" stroke="#00455D" stroke-width="1.258" stroke-linecap="round" stroke-linejoin="round"></path><path d="M84.937 98.545s-.278 4.592 3.431 6.546c3.71 1.954 19.476 10.925 19.476 10.925l14.283 20.209 7.326-6.043s-8.161-20.689-28.415-34.52M117.311 105.127l12.816 10.141" stroke="#00455D" stroke-width="1.148" stroke-linecap="round" stroke-linejoin="round"></path><path fill-rule="evenodd" clip-rule="evenodd" d="M124.731 134.048l2.347 3.212s-.776 1.827-.517 2.436c.258.609 3.108 5.047 3.664 4.612.556-.435 13.638-13.401 14.03-14.532.391-1.131-2.328-2.919-4.284-2.155-1.956.763-9.018 3.548-9.018 3.548l-.728-1.617" fill="#0098AB"></path><path d="M124.731 134.048l2.347 3.212s-.776 1.827-.517 2.436c.258.609 3.108 5.047 3.664 4.612.556-.435 13.638-13.401 14.03-14.532.391-1.131-2.328-2.919-4.284-2.155-1.956.763-9.018 3.548-9.018 3.548l-.728-1.617M130.513 131.493s1.838 5.215-3.758 6.085" stroke="#353E48" stroke-width="1.148" stroke-linecap="round" stroke-linejoin="round"></path><path d="M96.8 99.042l-1.749 4.052s6.082 3.838 7.721 4.759c1.639.922 4.196.974 5.096-.522M98.424 99.718l-1.349 4.057" stroke="#00455D" stroke-width="1.148" stroke-linecap="round" stroke-linejoin="round"></path><path d="M62.968 61.183s-5.55 3.715-9.46 33.817c-.63 4.227-.63 10.248 4.73 13.194 5.361 2.946 18.479 10.12 18.479 10.12l11.352 15.883s5.171-3.202 6.306-6.02c0 0-12.234-19.086-25.226-29.846" stroke="#00455D" stroke-width="1.258" stroke-linecap="round" stroke-linejoin="bevel"></path><path d="M62.028 65.915s15.035 5.451 8.395 18.507c0 0-3.098 3.734-3.35 11.557 0 0-5.924-.626-7.058 1.46-1.134 2.087-3.196 4.069-5.36 3.547-2.166-.521-3.506-1.147-4.125-.521" stroke="#00455D" stroke-width="1.148" stroke-linecap="round" stroke-linejoin="bevel"></path><path d="M59.326 67.944s-.856 13.65 7.111 21.676c7.968 8.027 11.454 12.04 11.454 12.04l-1.37 1.036 3.611 3.107s2.117-3.755-.747-7.38c-2.863-3.624-12.293-16.7-12.293-16.7V71.495" stroke="#00455D" stroke-width="1.148" stroke-linecap="round" stroke-linejoin="round"></path><path d="M59.974 49.989s1.831-5.917 7.653-5.702c5.822.215 8.005 5.917 8.005 7.1 0 1.183.624 2.044.52 4.088-.104 2.043-.679 8.82-5.226 8.067-4.547-.753-1.337 7.106-1.337 7.106M57.95 52.395s.112 5.446 6.071 7.436M74.814 51.053s-4.187-.425-6.07 4.046" stroke="#00455D" stroke-width="1.258" stroke-linecap="round" stroke-linejoin="bevel"></path><path fill-rule="evenodd" clip-rule="evenodd" d="M78.187 100.732a2.364 2.364 0 01-2.36 2.367 2.364 2.364 0 01-2.362-2.367 2.364 2.364 0 012.361-2.366c1.304 0 2.361 1.06 2.361 2.366z" fill="#fff"></path><path clip-rule="evenodd" d="M78.187 100.732a2.364 2.364 0 01-2.36 2.367 2.364 2.364 0 01-2.362-2.367 2.364 2.364 0 012.361-2.366c1.304 0 2.361 1.06 2.361 2.366z" stroke="#00455D" stroke-width="1.148" stroke-linecap="round" stroke-linejoin="bevel"></path><path fill-rule="evenodd" clip-rule="evenodd" d="M80.885 103.775l13.491 10.817-13.49-10.817z" fill="#fff"></path><path d="M80.885 103.775l13.491 10.817" stroke="#00455D" stroke-width="1.148" stroke-linecap="round" stroke-linejoin="bevel"></path><path fill-rule="evenodd" clip-rule="evenodd" d="M91.678 132.405l2.456 4.991s-.843 2.074.433 3.246a24.692 24.692 0 012.224 2.344l2.847-3.066s.102-1.925.573-2.225c.471-.299 5.827-2.733 7.656-6.971 0 0-.922-3.967-6.806-.541-2.467 1.172-3.51 1.803-3.51 1.803s-1.33 4.148-2.373 4.778" fill="#0098AB"></path><path d="M91.678 132.405l2.456 4.991s-.843 2.074.433 3.246a24.692 24.692 0 012.224 2.344l2.847-3.066s.102-1.925.573-2.225c.471-.299 5.827-2.733 7.656-6.971 0 0-.922-3.967-6.806-.541-2.467 1.172-3.51 1.803-3.51 1.803s-1.33 4.148-2.373 4.778M202.948 134.197s.595 3.831-3.341 4.057" stroke="#353E48" stroke-width="1.148" stroke-linecap="round" stroke-linejoin="round"></path><path d="M158.459 100.394s2.381-21.838 4.441-25.683c2.06-3.845 6.521-11.296 3.972-14.847-2.549-3.552-4.843-6.854-3.824-7.778 1.02-.925 10.834-3.887 11.599-2.857.765 1.03 4.716 9.365 4.716 10.478 0 1.113.383 4.662-4.461 5.85-1.912.93-1.529 5.051-1.529 5.051" stroke="#00455D" stroke-width="1.258" stroke-linecap="round" stroke-linejoin="round"></path><path d="M165.88 69.972s8.633 1.014 17.396 9.36c8.762 8.345 18.556 16.176 19.071 17.734.515 1.557 1.932 7.508-2.449 5.691-2.061-1.167-1.546-4.491-1.546-4.491L166.911 77.76M175.998 83.493l-3.373 12.845M166.989 98.006s5.816-.71 5.687 0c-.129.71 1.918 4.325 3.673 4.824 1.756.499 6.409 3.19 5.633 4.343-.775 1.154-7.884 10.123-7.884 10.123s-14.476-10.269-15.639-13.079M155.76 103.775l14.841-3.381M171.95 55.775l4.722-1.352M173.966 57.803s-2.118.486-2.012 1.948c.106 1.461 1.683 2.108 2.695 2.108" stroke="#00455D" stroke-width="1.258" stroke-linecap="round" stroke-linejoin="round"></path><path fill-rule="evenodd" clip-rule="evenodd" d="M142.944 119.635l4.058 2.492s2.395 3.375 5.387 5.706c2.992 2.331 8.505 6.364 8.505 6.364l2.287-4.103-14.35-17.531-5.887 7.072zM176.672 114.687l8.923 5.582 12.929 19.337s5.556-1.014 4.185-4.655c-1.443-3.83-10.994-20.264-10.994-20.264l-9.94-6.18-5.103 6.18z" fill="#97CAD1"></path><path d="M194.414 140.737s2.42-1.548 3.821 0c1.401 1.549 2.42 5.033 3.566 4.13 1.146-.904 11.972-13.421 11.972-13.421s-1.401-1.795-3.949-1.479c-2.547.318-7.397 3.814-7.397 3.814s-8.395-15.755-9.796-18.608c-1.401-2.852-8.539-7.342-8.539-7.342" stroke="#00455D" stroke-width="1.258" stroke-linecap="round" stroke-linejoin="round"></path><path d="M175.998 115.268l9.762 5.22 13.173 19.118M143.834 120.342s2.557 1.999 3.682 2.434c0 0 1.53 4.258 3.794 5.387 1.832 1.182 9.534 7.386 9.534 7.386l2.337-4.431s-18.521-26.591-22.935-29.371" stroke="#00455D" stroke-width="1.258" stroke-linecap="round" stroke-linejoin="round"></path><path d="M123.16 97.014s-1.582 6.75 1.171 9.809c2.752 3.06 17.976 13.853 17.976 13.853l6.708-8.074" stroke="#00455D" stroke-width="1.258" stroke-linecap="round" stroke-linejoin="round"></path></svg>