<svg
  width="90"
  height="80"
  viewBox="0 0 90 80"
  fill="none"
  xmlns="http://www.w3.org/2000/svg"
>
  <path
    fill-rule="evenodd"
    clip-rule="evenodd"
    d="M52.654 71.78a26.581 26.581 0 006.72-1.711 35.788 35.788 0 006.304-3.3 52.74 52.74 0 008.064-6.457c2.755-2.692 5.04-5.724 6.674-9.207.6-1.279 1.152-2.61 1.377-4.039.17-1.081.512-2.148.568-3.232.08-1.577.071-3.174-.078-4.745-.3-3.16-1.446-6.043-3.27-8.635-.997-1.418-2-2.852-3.17-4.125-1.212-1.32-2.615-2.468-3.959-3.664a108.527 108.527 0 00-3.474-2.971c-1.725-1.41-3.402-2.897-5.238-4.147-2.338-1.593-4.707-3.19-7.455-4.043-2.663-.829-5.394-1.124-8.127-.525-2.392.524-4.48 1.702-6.305 3.38-2.017 1.856-3.275 4.166-4.106 6.697-.607 1.849-.944 3.786-1.114 5.741-.14 1.611-.25 3.234-.54 4.82-.304 1.67-.592 3.357-1.23 4.952-.906 2.261-1.819 4.52-2.686 6.797-.76 2-1.232 4.078-1.563 6.194a17.38 17.38 0 00-.025 5.194c.468 3.236 1.417 6.293 3.463 8.944 1.217 1.577 2.471 3.098 4.11 4.25a22.584 22.584 0 002.488 1.543c1.05.551 2.15 1.005 2.768 1.29 3.537 1.111 6.627 1.377 9.804.999z"
    fill="#E6A386"
  />
  <path
    fill-rule="evenodd"
    clip-rule="evenodd"
    d="M46.31 38.623c-1.18 1.015-2.567 1.713-4.03 2.288-2.092.823-4.183 1.651-6.302 2.422-1.354.492-2.719.987-4.148 1.295a17.19 17.19 0 01-6.095.208 19.885 19.885 0 01-5.73-1.727c-1.674-.79-3.23-1.823-4.707-3.063a24.068 24.068 0 01-4.461-4.973A21.184 21.184 0 018.4 30.207c-1.079-3.075-1.436-6.114-1.013-9.062.27-1.887.837-3.642 1.737-5.231.783-1.383 1.767-2.573 2.895-3.619.896-.831 1.971-1.45 3.09-1.999 1.337-.653 2.777-1.06 4.294-1.261 2.376-.316 4.816-.07 7.307.704 1.998.62 3.902 1.574 5.76 2.67.846.5 1.629 1.154 2.44 1.739 1.131.815 2.267 1.622 3.39 2.45 1.048.771 2.09 1.551 3.118 2.353 1.302 1.017 2.602 2.036 3.776 3.235 1.109 1.133 2.072 2.368 2.832 3.736a12.12 12.12 0 011.448 4.372c.303 2.363-.155 4.422-1.267 6.222-.509.824-1.17 1.498-1.897 2.107z"
    fill="#97CAD1"
  />
  <path
    d="M25.826 25.826a3.93 3.93 0 013.93-3.93h26.387a6.176 6.176 0 016.175 6.175v20.212a6.176 6.176 0 01-6.175 6.175H32a6.176 6.176 0 01-6.175-6.175V25.826z"
    fill="#fff"
  />
  <rect
    x="24.141"
    y="20.211"
    width="36.493"
    height="32.563"
    rx="5.053"
    stroke="#00455D"
    stroke-width="1.684"
    stroke-linecap="round"
    stroke-linejoin="round"
  />
  <path
    d="M34.247 17.404V23.3M50.528 17.404V23.3M24.983 30.878h35.37M36.492 41.545l4.492 3.65 6.737-8.422"
    stroke="#00455D"
    stroke-width="1.684"
    stroke-linecap="round"
    stroke-linejoin="round"
  />
  <circle opacity="0.5" cx="11.509" cy="36.773" r="4.211" fill="#212121" />
  <circle opacity="0.5" cx="42.668" cy="60.073" r="2.807" fill="#212121" />
  <circle opacity="0.5" cx="71.02" cy="33.966" r="1.965" fill="#212121" />
</svg>
