<svg
    width="96"
    height="84"
    viewBox="0 0 96 84"
    fill="none"
    xmlns="http://www.w3.org/2000/svg"
  >
    <path
      fill-rule="evenodd"
      clip-rule="evenodd"
      d="M47.936 66.71c-1.223 1.05-2.659 1.772-4.172 2.368-2.166.852-4.33 1.71-6.524 2.506-1.4.51-2.814 1.022-4.293 1.341a17.796 17.796 0 01-6.309.216 20.58 20.58 0 01-5.932-1.788c-1.732-.818-3.343-1.887-4.871-3.17a24.913 24.913 0 01-4.618-5.148 21.93 21.93 0 01-2.521-5.037c-1.117-3.183-1.487-6.328-1.05-9.38.281-1.953.867-3.769 1.8-5.415.81-1.43 1.829-2.663 2.995-3.745.928-.86 2.04-1.502 3.2-2.069 1.383-.677 2.874-1.097 4.444-1.306 2.459-.326 4.984-.072 7.563.729 2.069.642 4.038 1.63 5.962 2.764.876.517 1.686 1.194 2.526 1.8 1.17.844 2.346 1.68 3.51 2.536a144.71 144.71 0 013.226 2.436c1.348 1.053 2.693 2.107 3.909 3.348 1.148 1.173 2.144 2.451 2.93 3.867a12.548 12.548 0 011.5 4.525c.313 2.446-.16 4.578-1.312 6.44-.526.853-1.212 1.551-1.963 2.182z"
      fill="#7A1D47"
    />
    <path
      fill-rule="evenodd"
      clip-rule="evenodd"
      d="M34.075 21.064a27.519 27.519 0 00-2.421 6.756 37.048 37.048 0 00-.817 7.32 54.59 54.59 0 00.872 10.657c.716 3.923 1.996 7.639 4.039 11.056.75 1.255 1.572 2.5 2.668 3.52.83.771 1.547 1.683 2.445 2.357 1.307.982 2.682 1.899 4.117 2.68 2.886 1.573 6.023 2.257 9.302 2.192 1.795-.035 3.606-.065 5.375-.332 1.834-.276 3.631-.815 5.436-1.277 1.528-.39 3.05-.807 4.56-1.261 2.208-.665 4.455-1.243 6.591-2.095 2.72-1.085 5.46-2.193 7.784-4.057 2.253-1.806 4.087-3.978 5.155-6.67.935-2.356 1.133-4.83.748-7.368-.424-2.804-1.679-5.22-3.37-7.399-1.235-1.59-2.702-3.001-4.282-4.279-1.301-1.052-2.63-2.086-3.823-3.252-1.257-1.228-2.538-2.452-3.537-3.923-1.417-2.086-2.827-4.177-4.279-6.239-1.276-1.81-2.786-3.418-4.41-4.926a17.99 17.99 0 00-4.443-3.028c-3.047-1.472-6.22-2.426-9.68-2.205-2.056.132-4.088.327-6.024 1.066-.944.36-1.878.764-2.766 1.243-1.08.582-2.107 1.263-2.708 1.629-3.001 2.391-5.017 4.889-6.532 7.835z"
      fill="#E6A386"
    />
    <circle cx="27.604" cy="35.739" r="6.102" fill="#fff" />
    <circle cx="61.309" cy="35.739" r="6.102" fill="#fff" />
    <circle cx="44.456" cy="32.834" r="7.264" fill="#fff" />
    <path
      d="M27.604 43.003c-5.701 0-10.467 4.103-11.638 9.583-.304 1.425.907 2.62 2.364 2.62h18.548c1.457 0 2.668-1.195 2.364-2.62-1.171-5.48-5.937-9.583-11.638-9.583zM61.31 43.003c-5.702 0-10.468 4.103-11.638 9.583-.305 1.425.906 2.62 2.364 2.62h18.547c1.458 0 2.669-1.195 2.364-2.62-1.17-5.48-5.936-9.583-11.638-9.583z"
      fill="#fff"
    />
    <path
      d="M44.166 41.26c-7.482 0-13.694 5.647-14.898 13.061-.234 1.439.97 2.629 2.428 2.629h24.94c1.457 0 2.661-1.19 2.428-2.629-1.205-7.414-7.416-13.061-14.898-13.061z"
      fill="#fff"
    />
    <circle
      cx="28.766"
      cy="34.577"
      r="6.102"
      stroke="#00455D"
      stroke-width="1.979"
      stroke-linecap="round"
      stroke-linejoin="round"
    />
    <circle
      cx="62.471"
      cy="34.577"
      r="6.102"
      stroke="#00455D"
      stroke-width="1.979"
      stroke-linecap="round"
      stroke-linejoin="round"
    />
    <circle
      cx="45.619"
      cy="31.671"
      r="7.264"
      stroke="#00455D"
      stroke-width="1.979"
      stroke-linecap="round"
      stroke-linejoin="round"
    />
    <path
      d="M28.767 41.26c-5.702 0-10.468 4.102-11.638 9.583-.305 1.425.906 2.62 2.364 2.62H38.04c1.458 0 2.669-1.195 2.364-2.62-1.17-5.48-5.936-9.583-11.638-9.583zM62.472 41.26c-5.702 0-10.467 4.102-11.638 9.583-.305 1.425.906 2.62 2.364 2.62h18.547c1.458 0 2.669-1.195 2.364-2.62-1.17-5.48-5.936-9.583-11.637-9.583z"
      fill="#fff"
      stroke="#00455D"
      stroke-width="1.979"
      stroke-linecap="round"
      stroke-linejoin="round"
    />
    <path
      d="M45.329 39.516c-7.482 0-13.694 5.648-14.898 13.062-.234 1.438.97 2.629 2.428 2.629h24.94c1.457 0 2.662-1.19 2.428-2.63-1.204-7.413-7.416-13.06-14.898-13.06z"
      fill="#fff"
      stroke="#00455D"
      stroke-width="1.979"
      stroke-linecap="round"
      stroke-linejoin="round"
    />
  </svg>